<?xml version="1.0" encoding="UTF-8" standalone="no"?>
<svg
   xmlns:dc="http://purl.org/dc/elements/1.1/"
   xmlns:cc="http://creativecommons.org/ns#"
   xmlns:rdf="http://www.w3.org/1999/02/22-rdf-syntax-ns#"
   xmlns:svg="http://www.w3.org/2000/svg"
   xmlns="http://www.w3.org/2000/svg"
   xmlns:sodipodi="http://sodipodi.sourceforge.net/DTD/sodipodi-0.dtd"
   xmlns:inkscape="http://www.inkscape.org/namespaces/inkscape"
   height="75.428001"
   width="75.428001"
   version="1.1"
   x="0px"
   y="0px"
   viewBox="0 0 75.428001 75.428001"
   enable-background="new 0 0 100 100"
   xml:space="preserve"
   id="svg1125"
   sodipodi:docname="clock.svg"
   style="fill:#645a5a"
   inkscape:version="0.92.5 (2060ec1f9f, 2020-04-08)"><metadata
     id="metadata1131"><rdf:RDF><cc:Work
         rdf:about=""><dc:format>image/svg+xml</dc:format><dc:type
           rdf:resource="http://purl.org/dc/dcmitype/StillImage" /><dc:title></dc:title></cc:Work></rdf:RDF></metadata><defs
     id="defs1129" /><sodipodi:namedview
     pagecolor="#ffffff"
     bordercolor="#666666"
     borderopacity="1"
     objecttolerance="10"
     gridtolerance="10"
     guidetolerance="10"
     inkscape:pageopacity="0"
     inkscape:pageshadow="2"
     inkscape:window-width="1920"
     inkscape:window-height="1080"
     id="namedview1127"
     showgrid="false"
     fit-margin-top="0"
     fit-margin-left="0"
     fit-margin-right="0"
     fit-margin-bottom="0"
     inkscape:zoom="8.53"
     inkscape:cx="37.714"
     inkscape:cy="37.714"
     inkscape:window-x="0"
     inkscape:window-y="0"
     inkscape:window-maximized="1"
     inkscape:current-layer="svg1125" /><g
     id="g1123"
     transform="translate(-12.286,-12.286)"><path
       d="M 50,12.286 C 29.171,12.286 12.286,29.171 12.286,50 12.286,70.829 29.171,87.714 50,87.714 70.829,87.714 87.714,70.829 87.714,50 87.714,29.171 70.829,12.286 50,12.286 Z m 0,72.256 C 30.923,84.542 15.458,69.077 15.458,50 15.458,30.923 30.923,15.458 50,15.458 69.077,15.458 84.542,30.923 84.542,50 84.542,69.077 69.077,84.542 50,84.542 Z"
       id="path993"
       inkscape:connector-curvature="0" /><rect
       x="35.160999"
       y="21.459"
       transform="matrix(0.8661,-0.4999,0.4999,0.8661,-7.2966,21.3461)"
       width="2.0580001"
       height="5.6620002"
       id="rect995" /><rect
       x="24.290001"
       y="32.308998"
       transform="matrix(0.5001,-0.866,0.866,0.5001,-17.7736,39.491)"
       width="2.0580001"
       height="5.6620002"
       id="rect997" /><rect
       x="24.26"
       y="61.980999"
       transform="matrix(-0.5001,-0.866,0.866,-0.5001,-18.1866,119.1247)"
       width="2.0580001"
       height="5.6620002"
       id="rect999" /><rect
       x="35.111"
       y="72.851997"
       transform="matrix(-0.8662,-0.4998,0.4998,-0.8662,29.619,159.2973)"
       width="2.0580001"
       height="5.6620002"
       id="rect1001" /><rect
       x="64.780998"
       y="72.880997"
       transform="matrix(-0.8658,0.5005,-0.5005,-0.8658,160.678,108.323)"
       width="2.059"
       height="5.6620002"
       id="rect1003" /><rect
       x="75.652"
       y="62.030998"
       transform="matrix(-0.4996,0.8663,-0.8663,-0.4996,171.1771,30.8363)"
       width="2.0580001"
       height="5.6620002"
       id="rect1005" /><rect
       x="75.681999"
       y="32.359001"
       transform="matrix(0.5002,0.8659,-0.8659,0.5002,68.8093,-48.8361)"
       width="2.0580001"
       height="5.6620002"
       id="rect1007" /><rect
       x="64.832001"
       y="21.488001"
       transform="matrix(0.8662,0.4998,-0.4998,0.8662,20.9685,-29.6597)"
       width="2.0580001"
       height="5.6620002"
       id="rect1009" /><rect
       x="47.459999"
       y="18.290001"
       transform="matrix(0.9945,-0.1045,0.1045,0.9945,-1.762,5.0984)"
       width="0.63999999"
       height="2.152"
       id="rect1011" /><rect
       x="44.275002"
       y="18.795"
       transform="matrix(0.9781,-0.2083,0.2083,0.9781,-3.1607,9.724)"
       width="0.63999999"
       height="2.152"
       id="rect1013" /><rect
       x="41.160999"
       y="19.629"
       transform="matrix(0.9508,-0.3098,0.3098,0.9508,-4.374,13.8699)"
       width="0.63999999"
       height="2.1530001"
       id="rect1015" /><rect
       x="38.150002"
       y="20.785999"
       transform="matrix(0.9137,-0.4065,0.4065,0.9137,-5.5649,17.5255)"
       width="0.63999999"
       height="2.152"
       id="rect1017" /><rect
       x="32.573002"
       y="24.006001"
       transform="matrix(0.8082,-0.5889,0.5889,0.8082,-8.4622,24.1835)"
       width="0.639"
       height="2.1530001"
       id="rect1019" /><rect
       x="30.068001"
       y="26.035"
       transform="matrix(0.7418,-0.6707,0.6707,0.7418,-10.3354,27.3802)"
       width="0.639"
       height="2.154"
       id="rect1021" /><rect
       x="27.788"
       y="28.315001"
       transform="matrix(0.6675,-0.7446,0.7446,0.6675,-12.5395,30.7025)"
       width="0.639"
       height="2.154"
       id="rect1023" /><rect
       x="25.757999"
       y="30.820999"
       transform="matrix(0.5864,-0.8101,0.8101,0.5864,-15.0518,34.3191)"
       width="0.63999999"
       height="2.1530001"
       id="rect1025" /><rect
       x="22.539"
       y="36.398998"
       transform="matrix(0.4049,-0.9144,0.9144,0.4049,-20.6627,43.2048)"
       width="0.639"
       height="2.1530001"
       id="rect1027" /><rect
       x="21.384001"
       y="39.41"
       transform="matrix(0.3068,-0.9518,0.9518,0.3068,-23.4886,48.7206)"
       width="0.63999999"
       height="2.152"
       id="rect1029" /><rect
       x="20.549"
       y="42.523998"
       transform="matrix(0.2046,-0.9788,0.9788,0.2046,-26.0792,55.1064)"
       width="0.63999999"
       height="2.1530001"
       id="rect1031" /><rect
       x="20.045"
       y="45.709"
       transform="matrix(0.1008,-0.9949,0.9949,0.1008,-28.2345,62.3315)"
       width="0.639"
       height="2.152"
       id="rect1033" /><rect
       x="20.045"
       y="52.148998"
       transform="matrix(-0.1083,-0.9941,0.9941,-0.1083,-30.3424,79.2336)"
       width="0.63999999"
       height="2.152"
       id="rect1035" /><rect
       x="20.549999"
       y="55.334"
       transform="matrix(-0.2119,-0.9773,0.9773,-0.2119,-29.8358,88.7619)"
       width="0.64099997"
       height="2.152"
       id="rect1037" /><rect
       x="21.386"
       y="58.449001"
       transform="matrix(-0.313,-0.9497,0.9497,-0.313,-28.0342,98.7728)"
       width="0.63999999"
       height="2.1530001"
       id="rect1039" /><rect
       x="22.542"
       y="61.459"
       transform="matrix(-0.4108,-0.9117,0.9117,-0.4108,-24.7621,109.069)"
       width="0.639"
       height="2.1530001"
       id="rect1041" /><rect
       x="25.761999"
       y="67.037003"
       transform="matrix(-0.5904,-0.8071,0.8071,-0.5904,-13.4913,129.3783)"
       width="0.63999999"
       height="2.151"
       id="rect1043" /><rect
       x="27.791"
       y="69.542"
       transform="matrix(-0.6719,-0.7406,0.7406,-0.6719,-5.3031,138.8871)"
       width="0.639"
       height="2.152"
       id="rect1045" /><rect
       x="30.072001"
       y="71.821999"
       transform="matrix(-0.7457,-0.6663,0.6663,-0.7457,4.4858,147.507)"
       width="0.639"
       height="2.151"
       id="rect1047" /><rect
       x="32.577999"
       y="73.850998"
       transform="matrix(-0.8118,-0.584,0.584,-0.8118,15.8466,154.9613)"
       width="0.639"
       height="2.152"
       id="rect1049" /><rect
       x="38.155998"
       y="77.07"
       transform="matrix(-0.9156,-0.402,0.402,-0.9156,42.2886,165.1668)"
       width="0.639"
       height="2.151"
       id="rect1051" /><rect
       x="41.167"
       y="78.225998"
       transform="matrix(-0.9526,-0.3043,0.3043,-0.9526,56.8751,167.4655)"
       width="0.639"
       height="2.151"
       id="rect1053" /><rect
       x="44.280998"
       y="79.059998"
       transform="matrix(-0.9788,-0.2046,0.2046,-0.9788,71.8598,167.7013)"
       width="0.63999999"
       height="2.151"
       id="rect1055" /><rect
       x="47.465"
       y="79.564003"
       transform="matrix(-0.9949,-0.1007,0.1007,-0.9949,87.2059,165.6819)"
       width="0.63999999"
       height="2.152"
       id="rect1057" /><rect
       x="53.903999"
       y="79.563004"
       transform="matrix(-0.9941,0.1083,-0.1083,-0.9941,116.8601,154.9333)"
       width="0.63999999"
       height="2.152"
       id="rect1059" /><rect
       x="57.089001"
       y="79.057999"
       transform="matrix(-0.977,0.2134,-0.2134,-0.977,130.5962,146.174)"
       width="0.64099997"
       height="2.1530001"
       id="rect1061" /><rect
       x="60.203999"
       y="78.223"
       transform="matrix(-0.9494,0.3139,-0.3139,-0.9494,142.8843,135.5893)"
       width="0.64099997"
       height="2.1530001"
       id="rect1063" /><rect
       x="63.214001"
       y="77.068001"
       transform="matrix(-0.9114,0.4115,-0.4115,-0.9114,153.5973,123.2203)"
       width="0.64099997"
       height="2.1530001"
       id="rect1065" /><rect
       x="68.791"
       y="73.847"
       transform="matrix(-0.8044,0.5941,-0.5941,-0.8044,169.2178,94.1283)"
       width="0.64099997"
       height="2.154"
       id="rect1067" /><rect
       x="71.296997"
       y="71.817001"
       transform="matrix(-0.7384,0.6744,-0.6744,-0.7384,173.6576,78.4157)"
       width="0.64099997"
       height="2.1530001"
       id="rect1069" /><rect
       x="73.575996"
       y="69.537003"
       transform="matrix(-0.6641,0.7477,-0.7477,-0.6641,175.7669,62.2576)"
       width="0.64300001"
       height="2.154"
       id="rect1071" /><rect
       x="75.605003"
       y="67.030998"
       transform="rotate(125.66889,75.92673,68.10819)"
       width="0.64300001"
       height="2.154"
       id="rect1073" /><rect
       x="78.823997"
       y="61.452999"
       transform="matrix(-0.4023,0.9155,-0.9155,-0.4023,168.2346,15.2298)"
       width="0.64300001"
       height="2.154"
       id="rect1075" /><rect
       x="79.980003"
       y="58.443001"
       transform="matrix(-0.3053,0.9523,-0.9523,-0.3053,161.4934,1.2211)"
       width="0.64300001"
       height="2.1530001"
       id="rect1077" /><rect
       x="80.814003"
       y="55.327999"
       transform="matrix(-0.2034,0.9791,-0.9791,-0.2034,152.865,-11.5615)"
       width="0.64300001"
       height="2.154"
       id="rect1079" /><rect
       x="81.318001"
       y="52.143002"
       transform="matrix(-0.1003,0.995,-0.995,-0.1003,142.7766,-22.6725)"
       width="0.64300001"
       height="2.154"
       id="rect1081" /><rect
       x="81.317001"
       y="45.702999"
       transform="matrix(0.1079,0.9942,-0.9942,0.1079,119.3343,-39.4307)"
       width="0.64200002"
       height="2.154"
       id="rect1083" /><rect
       x="80.813004"
       y="42.519001"
       transform="matrix(0.21,0.9777,-0.9777,0.21,106.7191,-44.8843)"
       width="0.64200002"
       height="2.1530001"
       id="rect1085" /><rect
       x="79.977997"
       y="39.403999"
       transform="matrix(0.3105,0.9506,-0.9506,0.3105,93.8446,-48.4187)"
       width="0.64200002"
       height="2.1530001"
       id="rect1087" /><rect
       x="78.821999"
       y="36.394001"
       transform="matrix(0.4081,0.9129,-0.9129,0.4081,81.0517,-50.0738)"
       width="0.64099997"
       height="2.1530001"
       id="rect1089" /><rect
       x="75.601997"
       y="30.816999"
       transform="matrix(0.588,0.8089,-0.8089,0.588,57.0788,-48.271)"
       width="0.64099997"
       height="2.1530001"
       id="rect1091" /><rect
       x="73.572998"
       y="28.311001"
       transform="matrix(0.6692,0.7431,-0.7431,0.6692,46.2841,-45.1884)"
       width="0.64099997"
       height="2.154"
       id="rect1093" /><polygon
       points="72.095,26.092 72.569,26.524 71.132,28.124 70.656,27.695 "
       id="polygon1095" /><polygon
       points="69.479,24.018 69.997,24.398 68.734,26.14 68.217,25.762 "
       id="polygon1097" /><polyline
       points="66.662,22.229 67.217,22.553 66.143,24.417 65.589,24.096  "
       id="polyline1099" /><polygon
       points="63.673,20.745 64.259,21.009 63.385,22.975 62.801,22.713 "
       id="polygon1101" /><polygon
       points="60.545,19.581 61.155,19.782 60.492,21.829 59.884,21.629 "
       id="polygon1103" /><polygon
       points="57.313,18.75 57.94,18.886 57.495,20.991 56.869,20.856 "
       id="polygon1105" /><polygon
       points="54.011,18.261 54.649,18.331 54.427,20.471 53.79,20.403 "
       id="polygon1107" /><rect
       x="49.134998"
       y="16.233"
       width="3.73"
       height="9.5150003"
       id="rect1109" /><rect
       x="17.233"
       y="48.134998"
       width="9.5150003"
       height="3.73"
       id="rect1111" /><rect
       x="49.134998"
       y="74.251999"
       width="3.73"
       height="9.5159998"
       id="rect1113" /><rect
       x="73.744003"
       y="48.134998"
       width="9.5159998"
       height="3.73"
       id="rect1115" /></g></svg>